HIERARCHY
ROOT Hips
{
	OFFSET -3.958830 18.904000 13.208200
	CHANNELS 6 Xposition Yposition Zposition Zrotation Yrotation Xrotation 
	JOINT LHipJoint
	{
		OFFSET 0.000000 0.000000 0.000000
		CHANNELS 3 Zrotation Yrotation Xrotation
		JOINT LeftUpLeg
		{
			OFFSET 1.800000 -1.400000 0.085000
			CHANNELS 3 Zrotation Yrotation Xrotation
			JOINT LeftLeg
			{
				OFFSET 2.215000 -6.000000 0.000000
				CHANNELS 3 Zrotation Yrotation Xrotation
				JOINT LeftFoot
				{
					OFFSET 2.500000 -6.900000 0.000000
					CHANNELS 3 Zrotation Yrotation Xrotation
					JOINT LeftToeBase
					{
						OFFSET 0.200000 -0.500000 1.950000
						CHANNELS 3 Zrotation Yrotation Xrotation
						End Site
						{
							OFFSET 0.000000 0.000000 0.000000
						}
					}
				}
			}
		}
	}
	JOINT RHipJoint
	{
		OFFSET 0.000000 0.000000 0.000000
		CHANNELS 3 Zrotation Yrotation Xrotation
		JOINT RightUpLeg
		{
			OFFSET -1.800000 -1.400000 0.085000
			CHANNELS 3 Zrotation Yrotation Xrotation
			JOINT RightLeg
			{
				OFFSET -2.215000 -6.000000 0.000000
				CHANNELS 3 Zrotation Yrotation Xrotation
				JOINT RightFoot
				{
					OFFSET -2.500000 -6.900000 0.000000
					CHANNELS 3 Zrotation Yrotation Xrotation
					JOINT RightToeBase
					{
						OFFSET -0.200000 -0.500000 1.950000
						CHANNELS 3 Zrotation Yrotation Xrotation
						End Site
						{
							OFFSET 0.000000 0.000000 0.000000
						}
					}
				}
			}
		}
	}
	JOINT LowerBack
	{
		OFFSET 0.000000 0.000000 0.000000
		CHANNELS 3 Zrotation Yrotation Xrotation
		JOINT Spine
		{
			OFFSET -0.087000 1.940000 -0.288900
			CHANNELS 3 Zrotation Yrotation Xrotation
			JOINT Spine1
			{
				OFFSET 0.000000 1.950000 0.060000
				CHANNELS 3 Zrotation Yrotation Xrotation
				JOINT Neck
				{
					OFFSET 0.000000 0.000000 0.000000
					CHANNELS 3 Zrotation Yrotation Xrotation
					JOINT Neck1
					{
						OFFSET 0.000000 1.600000 0.340000
						CHANNELS 3 Zrotation Yrotation Xrotation
						JOINT Head
						{
							OFFSET 0.000000 1.667000 -0.240000
							CHANNELS 3 Zrotation Yrotation Xrotation
							End Site
							{
								OFFSET 0.000000 0.000000 0.000000
							}
						}
					}
				}
				JOINT LeftShoulder
				{
					OFFSET 0.000000 0.000000 0.000000
					CHANNELS 3 Zrotation Yrotation Xrotation
					JOINT LeftArm
					{
						OFFSET 2.700000 1.550000 -0.730000
						CHANNELS 3 Zrotation Yrotation Xrotation
						JOINT LeftForeArm
						{
							OFFSET 5.450000 0.000000 0.000000
							CHANNELS 3 Zrotation Yrotation Xrotation
							JOINT LeftHand
							{
								OFFSET 3.450000 0.000000 0.000000
								CHANNELS 3 Zrotation Yrotation Xrotation
								JOINT LeftHandIndex1
								{
									OFFSET 0.750000 0.000000 0.000000
									CHANNELS 3 Zrotation Yrotation Xrotation
									End Site
									{
										OFFSET 0.000000 0.000000 0.000000
									}
								}
							}
						}
					}
				}
				JOINT RightShoulder
				{
					OFFSET 0.000000 0.000000 0.000000
					CHANNELS 3 Zrotation Yrotation Xrotation
					JOINT RightArm
					{
						OFFSET -2.700000 1.550000 -0.730000
						CHANNELS 3 Zrotation Yrotation Xrotation
						JOINT RightForeArm
						{
							OFFSET -5.450000 0.000000 0.000000
							CHANNELS 3 Zrotation Yrotation Xrotation
							JOINT RightHand
							{
								OFFSET -3.450000 0.000000 0.000000
								CHANNELS 3 Zrotation Yrotation Xrotation
								JOINT RightHandIndex1
								{
									OFFSET -0.750000 0.000000 0.000000
									CHANNELS 3 Zrotation Yrotation Xrotation
									End Site
									{
										OFFSET 0.000000 0.000000 0.000000
									}
								}
							}
						}
					}
				}
			}
		}
	}
}
MOTION
Frames: 7
Frame Time: 0.016667
1.735700 17.671150 -0.511030 -4.496622 4.896138 2.148770 -15.070565 13.312659 2.760514 7.779877 -1.403497 -13.607353 -10.153858 7.036052 13.827997 -0.623251 4.936674 3.033516 -0.478330 -0.707560 -0.653500 18.405033 -10.073560 3.448148 3.331712 5.444262 -26.892718 9.216561 -4.644257 14.260377 0.321397 -2.546292 3.676706 -0.238740 0.988590 0.021600 -3.980177 -2.464382 -7.546452 10.829953 -3.625420 9.269094 -7.240698 -2.198754 2.984192 1.265277 -5.412143 -8.434920 -12.668353 7.977817 35.755497 2.590290 0.296750 3.237530 -22.506018 -6.256687 1.517870 -48.153689 -7.597277 -2.923928 -2.265662 -22.022992 -1.375780 -4.242190 2.621866 0.353100 0.450030 -0.535340 0.103030 19.619198 8.622429 6.140552 57.604990 0.881062 -10.809323 31.961359 40.913322 7.092926 1.980884 -1.208362 -0.603730 0.579900 0.684610 -0.002410 
1.705320 17.684140 -0.501030 -4.526170 4.363077 2.555182 -15.090066 13.301647 2.694678 7.412612 -1.442852 -14.123025 -9.147061 6.819855 14.208076 -0.608879 4.809441 3.091916 -0.504310 -0.720740 -0.683420 18.388391 -10.043926 3.491515 2.202675 5.224231 -27.021561 10.756211 -4.260860 10.225370 0.365810 -2.401227 3.754691 -0.252560 1.020570 0.020680 -3.925856 -2.438056 -7.508879 10.181506 -3.073377 8.512064 -5.886263 -1.864646 3.278171 0.845796 -5.331844 -8.450493 -12.525940 7.655850 35.702299 2.480470 0.099810 4.277460 -21.282241 -6.396211 1.884701 -50.892553 -8.270984 -2.696186 -3.085343 -22.474588 -1.313258 -4.267550 2.630599 0.304160 0.479870 -0.559250 0.108960 19.347449 8.975781 5.832454 58.276250 2.022086 -10.590242 25.690586 38.049716 4.671811 1.989386 -1.157328 -0.592240 0.577950 0.686140 0.020990 
1.663080 17.706630 -0.489060 -4.539280 4.203152 2.989273 -15.118572 13.304694 2.640271 7.091638 -1.487520 -14.593698 -8.152129 6.573122 14.380274 -0.638878 4.721604 3.155102 -0.558000 -0.775910 -0.743950 18.364352 -10.017509 3.516611 1.209844 5.140484 -27.428612 11.395721 -4.036703 8.331716 0.410523 -2.368580 3.799146 -0.268180 1.097330 0.004100 -3.851467 -2.447228 -7.454759 9.320575 -2.578824 7.840390 -4.396450 -1.587845 3.344744 0.294085 -5.318487 -8.296725 -12.461357 7.436569 35.301679 2.793480 -0.394270 5.263510 -19.918752 -6.034156 2.010144 -54.024901 -9.104656 -2.301543 -3.983197 -22.844633 -1.269953 -4.315965 2.602017 0.277430 0.523030 -0.610690 0.120040 19.204189 8.811903 5.404767 58.779514 2.799242 -10.191395 20.550239 34.917885 2.893439 1.979995 -1.086126 -0.627780 0.619910 0.718860 0.038830 
1.606290 17.720700 -0.474800 -4.343950 4.541332 3.787026 -15.191107 13.300284 2.613904 6.760709 -1.638535 -15.459307 -7.476007 6.387496 14.461653 -0.695014 4.708079 3.196138 -0.653590 -0.898250 -0.843050 18.307008 -9.957330 3.493416 -0.056706 5.040475 -28.041232 11.773919 -3.974976 7.557628 0.488806 -2.430226 3.805186 -0.297010 1.218890 -0.000760 -3.667872 -2.544306 -7.339858 7.523567 -2.022778 6.645709 -2.068934 -1.371541 3.646639 -0.478957 -5.153499 -7.974895 -11.870966 7.095796 33.717183 2.883240 -0.883740 7.113010 -17.670661 -5.074516 2.097130 -58.279891 -10.057770 -1.800904 -5.726571 -23.775131 -1.126059 -4.411125 2.610724 0.230820 0.606210 -0.716360 0.119430 18.723474 7.967546 4.771915 58.957454 3.328595 -9.609041 16.792306 31.881123 1.734628 1.957498 -1.050368 -0.690980 0.649060 0.793460 0.049690 
1.555700 17.744360 -0.457310 -4.563542 5.156273 4.483654 -15.228110 13.286673 2.595873 6.809929 -1.763177 -16.168054 -6.892697 6.152770 14.051667 -0.758508 4.687276 3.237804 -0.751110 -1.026230 -0.917050 18.280475 -9.938000 3.444972 -1.176404 4.881483 -28.227155 11.878808 -4.002047 7.327741 0.558291 -2.510217 3.795828 -0.327470 1.326210 -0.005140 -3.583028 -2.578703 -7.226499 6.686562 -1.758879 5.649033 -0.235763 -1.346800 3.810755 -1.126335 -5.059493 -7.636767 -11.403310 6.641232 32.162291 2.583100 -1.298470 8.419100 -15.824943 -3.932253 2.182683 -62.112569 -10.402977 -1.613970 -8.225306 -25.228006 -0.798076 -4.501360 2.604544 0.196150 0.682110 -0.807090 0.103090 18.287015 6.901214 4.096650 58.901484 3.646229 -9.013606 13.905087 28.737636 0.928975 1.951112 -1.002104 -0.758180 0.682930 0.866520 0.051760 
1.505710 17.766130 -0.437220 -4.734473 6.050808 5.250149 -15.261301 13.274984 2.589716 6.675488 -1.913589 -16.906816 -6.185588 5.799300 13.253181 -0.848903 4.662403 3.300928 -0.872430 -1.193420 -1.028650 18.259803 -9.929365 3.367803 -2.365809 4.679821 -28.431938 11.706653 -4.129769 7.703763 0.633558 -2.631741 3.767943 -0.366280 1.481200 0.007080 -3.514181 -2.626390 -7.086348 5.937819 -1.632137 4.582792 1.305845 -1.415735 3.897820 -1.764953 -4.956170 -7.240490 -10.803395 6.404043 30.049564 2.354290 -1.680940 9.975430 -14.167221 -2.676786 2.245336 -65.549823 -10.375020 -1.534145 -11.000439 -26.603310 -0.376019 -4.620346 2.616144 0.163200 0.782510 -0.921830 0.101140 17.991828 5.632996 3.350300 58.787691 3.743166 -8.421022 11.511580 25.248587 0.303566 1.931987 -0.963870 -0.846860 0.728640 0.968440 0.060080 
1.448370 17.795510 -0.420930 -4.892389 7.278000 5.787590 -15.299297 13.283851 2.618158 6.579530 -2.054562 -17.483831 -5.679667 5.457230 12.126772 -0.917738 4.601835 3.360505 -0.960380 -1.318420 -1.092110 18.225771 -9.933631 3.271459 -3.453105 4.372028 -28.174212 11.442933 -4.278729 8.197401 0.690159 -2.739551 3.744324 -0.397050 1.579450 0.007400 -3.421587 -2.720245 -6.993023 5.049582 -1.686248 3.885581 2.816279 -1.625069 3.988887 -2.292190 -4.777966 -7.011459 -10.264573 6.037877 28.768520 2.028760 -2.003680 11.046700 -13.031380 -1.835943 2.413480 -68.086921 -10.030458 -1.735932 -13.352039 -27.934379 0.054214 -4.697531 2.619808 0.140740 0.850120 -1.003290 0.088470 18.015082 4.730721 2.815604 58.284881 3.655260 -8.101355 10.133281 23.017492 -0.002659 1.923650 -0.933008 -0.912460 0.759270 1.036990 0.057690 
